<svg xmlns="http://www.w3.org/2000/svg" viewBox="0 0 254.42 113.99"><defs><style>.cls-1{fill:#231f20;}.cls-2{fill:#ee4036;}</style></defs><g id="Layer_2" data-name="Layer 2"><g id="Layer_1-2" data-name="Layer 1"><path class="cls-1" d="M.28,22.31V.12h4l7.28,17.53V.12h3.22V22.31h-4L3.5,4.78V22.31Z"/><path class="cls-1" d="M24.49,27.37a8.76,8.76,0,0,1-3.34-.6,6.23,6.23,0,0,1-2.42-1.68,6.17,6.17,0,0,1-1.33-2.53l3.31-.22A3.1,3.1,0,0,0,21.93,24a4.53,4.53,0,0,0,2.56.59,5.06,5.06,0,0,0,3.2-.87,3.1,3.1,0,0,0,1.11-2.59V18.65a4.5,4.5,0,0,1-1.86,2,5.59,5.59,0,0,1-2.92.75,6.69,6.69,0,0,1-3.68-1,6.94,6.94,0,0,1-2.53-2.83,9,9,0,0,1-.91-4.14,9.6,9.6,0,0,1,.89-4.25,7,7,0,0,1,2.48-2.84,6.53,6.53,0,0,1,3.63-1,5.92,5.92,0,0,1,3.08.8A4.64,4.64,0,0,1,28.9,8.28l0-2.59h3V20.87a6.49,6.49,0,0,1-.91,3.54,5.69,5.69,0,0,1-2.57,2.21A9.73,9.73,0,0,1,24.49,27.37Zm0-8.75a3.91,3.91,0,0,0,3.12-1.38A5.73,5.73,0,0,0,28.8,13.4a6.54,6.54,0,0,0-.51-2.86,4,4,0,0,0-3.83-2.42,3.81,3.81,0,0,0-3.14,1.39,6.1,6.1,0,0,0-1.11,3.89,5.83,5.83,0,0,0,1.14,3.84A3.82,3.82,0,0,0,24.46,18.62Z"/><path class="cls-1" d="M41.64,22.68a7.54,7.54,0,0,1-4-1.06,7.1,7.1,0,0,1-2.69-3A10.48,10.48,0,0,1,34,14a10.48,10.48,0,0,1,.95-4.61,7.13,7.13,0,0,1,2.69-3,8.25,8.25,0,0,1,8.09,0,7.19,7.19,0,0,1,2.69,3A10.48,10.48,0,0,1,49.33,14a10.48,10.48,0,0,1-.95,4.59,7.16,7.16,0,0,1-2.69,3A7.6,7.6,0,0,1,41.64,22.68Zm0-2.9a3.78,3.78,0,0,0,3.24-1.54A7,7,0,0,0,46,14a7,7,0,0,0-1.14-4.25,4.19,4.19,0,0,0-6.47,0A7,7,0,0,0,37.27,14a7,7,0,0,0,1.14,4.24A3.78,3.78,0,0,0,41.64,19.78Z"/><path class="cls-1" d="M60,22.68a5.73,5.73,0,0,1-3.06-.8,5.5,5.5,0,0,1-2-2.14l-.09,2.57H51.89V.12h3.16V8A5.48,5.48,0,0,1,57,6.12a5.61,5.61,0,0,1,3-.81A6.45,6.45,0,0,1,63.7,6.36a6.7,6.7,0,0,1,2.4,3A11.48,11.48,0,0,1,67,14a11.46,11.46,0,0,1-.85,4.63,6.59,6.59,0,0,1-2.4,3A6.45,6.45,0,0,1,60,22.68Zm-.53-2.9a3.54,3.54,0,0,0,3.06-1.55A7.2,7.2,0,0,0,63.64,14a7.18,7.18,0,0,0-1.1-4.25,3.49,3.49,0,0,0-3-1.53,4.18,4.18,0,0,0-2.4.68,4.48,4.48,0,0,0-1.55,2A8.09,8.09,0,0,0,55.05,14a8,8,0,0,0,.54,3.07,4.62,4.62,0,0,0,1.53,2A4,4,0,0,0,59.48,19.78Z"/><path class="cls-1" d="M69,8.34V5.69h6V8.34Zm0,14V19.65H81.57v2.66Zm4.22,0V5.69h2.5L76,9.93l-.28,0a5.42,5.42,0,0,1,1.34-3.18,3.82,3.82,0,0,1,2.84-1h3.53V8.43H80a4.08,4.08,0,0,0-2,.46,2.94,2.94,0,0,0-1.24,1.34,5.14,5.14,0,0,0-.42,2.2v9.88Z"/><path class="cls-1" d="M92.81,22.68a7.54,7.54,0,0,1-4-1.06,7.1,7.1,0,0,1-2.69-3,10.48,10.48,0,0,1-1-4.59,10.48,10.48,0,0,1,1-4.61,7.13,7.13,0,0,1,2.69-3,8.25,8.25,0,0,1,8.09,0,7.13,7.13,0,0,1,2.69,3,10.48,10.48,0,0,1,1,4.61,10.48,10.48,0,0,1-1,4.59,7.1,7.1,0,0,1-2.69,3A7.57,7.57,0,0,1,92.81,22.68Zm0-2.9a3.78,3.78,0,0,0,3.24-1.54A7,7,0,0,0,97.19,14a7,7,0,0,0-1.14-4.25,4.19,4.19,0,0,0-6.47,0A7,7,0,0,0,88.44,14a7,7,0,0,0,1.14,4.24A3.78,3.78,0,0,0,92.81,19.78Z"/><path class="cls-1" d="M102.25,22.31V19.65h15.24v2.66Zm6.5,0V4.84a2.06,2.06,0,0,0-.55-1.51,2,2,0,0,0-1.51-.55h-3.82V.12H107a5,5,0,0,1,3.64,1.24A5,5,0,0,1,111.9,5V22.31Z"/><path class="cls-2" d="M119.4,14.62V11.75h15.06v2.87Zm6.09,6.09V5.65h2.88V20.71Z"/><path class="cls-1" d="M136.71,22.31V.12h6.9a8.1,8.1,0,0,1,5.55,1.79,6.13,6.13,0,0,1,2,4.84,5.5,5.5,0,0,1-.7,2.81,5.22,5.22,0,0,1-1.85,1.91,5.57,5.57,0,0,1-2.42.78l-.12-.38a5.61,5.61,0,0,1,3.45,1.05A4.33,4.33,0,0,1,150.86,16l.56,6.31h-3.28l-.5-5.69a4.24,4.24,0,0,0-.47-1.75,2.08,2.08,0,0,0-1.15-.94,6.81,6.81,0,0,0-2.16-.28H140v8.66ZM140,10.59h3.56a4.59,4.59,0,0,0,3.15-1,3.43,3.43,0,0,0,1.1-2.72,3.44,3.44,0,0,0-1.1-2.73,4.69,4.69,0,0,0-3.15-.95H140Z"/><path class="cls-1" d="M154.05,22.31V19.65h15.24v2.66Zm.31-14V5.69h9.09V8.34Zm6-5.06V0h3.24V3.28Zm.18,19V5.69h3.19V22.31Z"/><path class="cls-1" d="M178.35,22.68a8.87,8.87,0,0,1-3.81-.75,6.06,6.06,0,0,1-2.47-2,5.72,5.72,0,0,1-1-2.83l3.22-.19A3.43,3.43,0,0,0,175.54,19a4.45,4.45,0,0,0,2.84.8,5.92,5.92,0,0,0,2.63-.47,1.55,1.55,0,0,0,.9-1.47,1.72,1.72,0,0,0-.31-1,2.37,2.37,0,0,0-1.17-.71,17.6,17.6,0,0,0-2.52-.61,18.18,18.18,0,0,1-3.86-1.11,4.39,4.39,0,0,1-2-1.63,4.48,4.48,0,0,1-.59-2.39,4.73,4.73,0,0,1,.73-2.59A5,5,0,0,1,174.38,6a8.38,8.38,0,0,1,3.56-.67,7.76,7.76,0,0,1,3.66.77,6,6,0,0,1,2.25,2,6.57,6.57,0,0,1,1,2.66l-3.22.18A3.62,3.62,0,0,0,181,9.48a3.4,3.4,0,0,0-1.25-1,4.31,4.31,0,0,0-1.82-.36,3.71,3.71,0,0,0-2.43.66,2,2,0,0,0-.78,1.59,1.86,1.86,0,0,0,.37,1.21,2.78,2.78,0,0,0,1.25.75,18.3,18.3,0,0,0,2.38.57,15.26,15.26,0,0,1,3.9,1.05,4.27,4.27,0,0,1,1.94,1.58,4.44,4.44,0,0,1,.56,2.31,4,4,0,0,1-.86,2.58,5.33,5.33,0,0,1-2.37,1.65A9.86,9.86,0,0,1,178.35,22.68Z"/><path class="cls-1" d="M195.38,22.68a7.63,7.63,0,0,1-4.08-1.06,7.1,7.1,0,0,1-2.69-3,10.48,10.48,0,0,1-1-4.59,10.36,10.36,0,0,1,1-4.57,7.41,7.41,0,0,1,2.66-3,7.86,7.86,0,0,1,7.92,0,7.17,7.17,0,0,1,2.64,3,10.7,10.7,0,0,1,.95,4.7v.87H191a5.63,5.63,0,0,0,1.33,3.61,4.1,4.1,0,0,0,3.11,1.24,4,4,0,0,0,2.43-.71,3.62,3.62,0,0,0,1.35-1.83l3.31.22a7.1,7.1,0,0,1-7.12,5.22ZM191,12.4h8.41a4.71,4.71,0,0,0-1.3-3.15,3.94,3.94,0,0,0-2.8-1,4,4,0,0,0-2.87,1.06A5.24,5.24,0,0,0,191,12.4Z"/><path class="cls-1" d="M204.34,8.34V5.69h14.87V8.34Zm10.25,14a5.28,5.28,0,0,1-3.77-1.18,4.76,4.76,0,0,1-1.23-3.6V1.78h3.16V17.37a2.41,2.41,0,0,0,.54,1.72,2.22,2.22,0,0,0,1.64.56h4.28v2.66Z"/><path class="cls-2" d="M0,43.62V40.75H15.06v2.87Zm6.09,6.09V34.65H9V49.71Z"/><path class="cls-1" d="M17.81,51.31V29.12h6.43a8.47,8.47,0,0,1,5.56,1.6,5.46,5.46,0,0,1,1.91,4.43,4.79,4.79,0,0,1-.63,2.46,4.45,4.45,0,0,1-1.82,1.72A6.38,6.38,0,0,1,26.4,40v-.19a7.81,7.81,0,0,1,3.42.67,4.79,4.79,0,0,1,2.11,1.88,5.32,5.32,0,0,1,.72,2.79,5.51,5.51,0,0,1-2,4.55A8.83,8.83,0,0,1,25,51.31Zm3.28-12.78H24.3a4.64,4.64,0,0,0,3-.83,2.91,2.91,0,0,0,1-2.33,3,3,0,0,0-1-2.36,4.64,4.64,0,0,0-3-.82H21.09Zm0,9.71H25a4.94,4.94,0,0,0,3.19-.85,2.94,2.94,0,0,0,1-2.39,3.11,3.11,0,0,0-1.08-2.53A4.72,4.72,0,0,0,25,41.56H21.09Z"/><path class="cls-1" d="M34.9,37.34V34.69h6v2.65Zm0,14V48.65H47.45v2.66Zm4.21,0V34.69h2.5l.28,4.24-.28,0A5.49,5.49,0,0,1,43,35.72a3.81,3.81,0,0,1,2.84-1h3.53v2.74H45.92a4.11,4.11,0,0,0-2,.46,2.92,2.92,0,0,0-1.23,1.34,5.17,5.17,0,0,0-.42,2.2v9.88Z"/><path class="cls-1" d="M56.45,51.68a6.84,6.84,0,0,1-2.81-.56,4.83,4.83,0,0,1-2-1.59,4.05,4.05,0,0,1-.74-2.41,4.24,4.24,0,0,1,1.3-3.31,7.89,7.89,0,0,1,3.92-1.69L61.51,41a4.36,4.36,0,0,0-.84-2.91,3.2,3.2,0,0,0-2.53-1,3.74,3.74,0,0,0-2.44.72,3.65,3.65,0,0,0-1.19,2l-3.31-.22a6.4,6.4,0,0,1,2.28-3.84,7.16,7.16,0,0,1,4.66-1.47A6.33,6.33,0,0,1,63,36.12a7.12,7.12,0,0,1,1.67,5v6.56a1.05,1.05,0,0,0,.25.8,1,1,0,0,0,.72.23h.93v2.6l-.61.06-.82,0A4.39,4.39,0,0,1,63.23,51a2.46,2.46,0,0,1-1.17-1.17,5.14,5.14,0,0,1-.45-2h.5a4,4,0,0,1-1,2,5.36,5.36,0,0,1-2,1.37A7.08,7.08,0,0,1,56.45,51.68Zm.47-2.59a5.54,5.54,0,0,0,2.53-.53A3.62,3.62,0,0,0,61,47.06a4.85,4.85,0,0,0,.51-2.28V43.5l-4.62.93a4,4,0,0,0-2.09.88,2.09,2.09,0,0,0-.6,1.56,2,2,0,0,0,.72,1.62A3,3,0,0,0,56.92,49.09Z"/><path class="cls-1" d="M68.76,51.31V48.65H84v2.66Zm.31-14V34.69h9.09v2.65Zm6-5.06V29h3.25v3.28Zm.19,19V34.69h3.18V51.31Z"/><path class="cls-1" d="M85.94,51.31V34.69h2.91L88.94,39l-.34-.25a5.72,5.72,0,0,1,1.11-2.52,5,5,0,0,1,2-1.47,6.36,6.36,0,0,1,2.47-.48,5.39,5.39,0,0,1,3.09.83,5.11,5.11,0,0,1,1.84,2.25,7.81,7.81,0,0,1,.63,3.2V51.31H96.53V41.4a5.28,5.28,0,0,0-.83-3.25,2.91,2.91,0,0,0-2.48-1.09,4.35,4.35,0,0,0-2.08.5A3.76,3.76,0,0,0,89.66,39a4.8,4.8,0,0,0-.56,2.43v9.84Z"/><path class="cls-1" d="M110.12,51.68a8.87,8.87,0,0,1-3.81-.75,6.13,6.13,0,0,1-2.47-2,5.82,5.82,0,0,1-1-2.83l3.22-.19A3.43,3.43,0,0,0,107.31,48a4.47,4.47,0,0,0,2.84.8,5.92,5.92,0,0,0,2.63-.47,1.55,1.55,0,0,0,.9-1.47,1.72,1.72,0,0,0-.31-1,2.37,2.37,0,0,0-1.17-.71,18.68,18.68,0,0,0-2.52-.61,17.33,17.33,0,0,1-3.85-1.11,4.37,4.37,0,0,1-2-1.63,4.58,4.58,0,0,1-.59-2.39,4.73,4.73,0,0,1,.73-2.59A5.06,5.06,0,0,1,106.15,35a8.55,8.55,0,0,1,3.57-.67,7.74,7.74,0,0,1,3.65.77,6,6,0,0,1,2.25,2,6.57,6.57,0,0,1,1,2.66l-3.22.18a3.62,3.62,0,0,0-.65-1.42,3.4,3.4,0,0,0-1.25-1,4.3,4.3,0,0,0-1.81-.36,3.73,3.73,0,0,0-2.44.66,2,2,0,0,0-.78,1.59,1.86,1.86,0,0,0,.37,1.21,2.78,2.78,0,0,0,1.25.75,18.71,18.71,0,0,0,2.38.57,15.26,15.26,0,0,1,3.9,1,4.27,4.27,0,0,1,1.94,1.58,4.44,4.44,0,0,1,.56,2.31,4,4,0,0,1-.86,2.58,5.33,5.33,0,0,1-2.37,1.65A9.82,9.82,0,0,1,110.12,51.68Z"/><path class="cls-1" d="M119.06,37.34V34.69h14.87v2.65Zm10.24,14a5.25,5.25,0,0,1-3.76-1.18,4.76,4.76,0,0,1-1.24-3.6V30.78h3.16V46.37a2.37,2.37,0,0,0,.55,1.72,2.2,2.2,0,0,0,1.64.56h4.28v2.66Z"/><path class="cls-1" d="M144,51.68a7.57,7.57,0,0,1-4.05-1.06,7.1,7.1,0,0,1-2.69-3A10.48,10.48,0,0,1,136.3,43a10.48,10.48,0,0,1,.95-4.61,7.13,7.13,0,0,1,2.69-3,8.25,8.25,0,0,1,8.09,0,7.13,7.13,0,0,1,2.69,3,10.48,10.48,0,0,1,.95,4.61,10.48,10.48,0,0,1-.95,4.59,7.1,7.1,0,0,1-2.69,3A7.54,7.54,0,0,1,144,51.68Zm0-2.9a3.78,3.78,0,0,0,3.23-1.54A6.94,6.94,0,0,0,148.36,43a7,7,0,0,0-1.14-4.25,4.19,4.19,0,0,0-6.47,0A7,7,0,0,0,139.61,43a6.94,6.94,0,0,0,1.14,4.24A3.78,3.78,0,0,0,144,48.78Z"/><path class="cls-1" d="M154.29,37.34V34.69h6v2.65Zm0,14V48.65h12.56v2.66Zm4.22,0V34.69H161l.28,4.24-.28,0a5.55,5.55,0,0,1,1.34-3.18,3.85,3.85,0,0,1,2.85-1h3.53v2.74h-3.41a4.11,4.11,0,0,0-2,.46,2.92,2.92,0,0,0-1.23,1.34,5.17,5.17,0,0,0-.42,2.2v9.88Z"/><path class="cls-1" d="M169.85,51.31V34.69h2.75l.13,3.74-.35-.09a5.88,5.88,0,0,1,1.24-3,3,3,0,0,1,2.32-1.06,2.64,2.64,0,0,1,2.27,1.06,6.36,6.36,0,0,1,.95,3.16h-.34a5.73,5.73,0,0,1,1.28-3.11,3.23,3.23,0,0,1,2.5-1.11,3.17,3.17,0,0,1,2.86,1.36,8.38,8.38,0,0,1,.89,4.42V51.31h-3.06V40.62a6.25,6.25,0,0,0-.43-2.78,1.37,1.37,0,0,0-1.29-.78,1.55,1.55,0,0,0-1,.37,2.49,2.49,0,0,0-.7,1.18,7,7,0,0,0-.25,2.07V51.31h-3V40.62a6.9,6.9,0,0,0-.39-2.75,1.34,1.34,0,0,0-1.3-.81,1.53,1.53,0,0,0-1,.37,2.66,2.66,0,0,0-.7,1.18,6.57,6.57,0,0,0-.27,2.07V51.31Z"/><path class="cls-1" d="M188.16,51.31V48.65H203.4v2.66Zm.31-14V34.69h9.09v2.65Zm6-5.06V29h3.25v3.28Zm.19,19V34.69h3.18V51.31Z"/><path class="cls-1" d="M205.34,51.31V34.69h2.91l.09,4.34-.34-.25a5.72,5.72,0,0,1,1.11-2.52,5,5,0,0,1,1.95-1.47,6.36,6.36,0,0,1,2.47-.48,5.39,5.39,0,0,1,3.09.83,5.11,5.11,0,0,1,1.84,2.25,7.81,7.81,0,0,1,.63,3.2V51.31h-3.16V41.4a5.28,5.28,0,0,0-.83-3.25,2.91,2.91,0,0,0-2.48-1.09,4.35,4.35,0,0,0-2.08.5A3.76,3.76,0,0,0,209.06,39a4.8,4.8,0,0,0-.56,2.43v9.84Z"/><path class="cls-1" d="M229.18,56.37a8.81,8.81,0,0,1-3.35-.6,6.06,6.06,0,0,1-3.74-4.21l3.31-.22A3.05,3.05,0,0,0,226.62,53a4.5,4.5,0,0,0,2.56.6,5.1,5.1,0,0,0,3.2-.88,3.1,3.1,0,0,0,1.11-2.59V47.65a4.56,4.56,0,0,1-1.86,2,5.62,5.62,0,0,1-2.92.75,6.7,6.7,0,0,1-3.69-1,7.09,7.09,0,0,1-2.53-2.83,9.08,9.08,0,0,1-.9-4.14,9.47,9.47,0,0,1,.89-4.25A7,7,0,0,1,225,35.34a6.49,6.49,0,0,1,3.62-1,5.86,5.86,0,0,1,3.08.8,4.54,4.54,0,0,1,1.92,2.17l0-2.59h3V49.87a6.56,6.56,0,0,1-.9,3.54,5.77,5.77,0,0,1-2.58,2.21A9.65,9.65,0,0,1,229.18,56.37Zm0-8.75a3.93,3.93,0,0,0,3.12-1.37,5.84,5.84,0,0,0,1.22-3.85,6.39,6.39,0,0,0-.52-2.86,4,4,0,0,0-1.53-1.79,4.14,4.14,0,0,0-2.29-.63A3.8,3.8,0,0,0,226,38.51a6.1,6.1,0,0,0-1.11,3.89A5.87,5.87,0,0,0,226,46.25,3.83,3.83,0,0,0,229.15,47.62Z"/><path class="cls-2" d="M0,72.62V69.75H15.06v2.87Zm6.09,6.09V63.65H9V78.71Z"/><path class="cls-1" d="M17,80.31V58.13h3.28V80.31Zm3-6.69V69l8.62-10.84h4Zm9,6.69L21.87,69.37l2.25-2.25,8.65,13.19Z"/><path class="cls-1" d="M41.64,80.68a7.54,7.54,0,0,1-4-1.06,7.1,7.1,0,0,1-2.69-3,11.61,11.61,0,0,1,0-9.2,7.13,7.13,0,0,1,2.69-3,8.25,8.25,0,0,1,8.09,0,7.19,7.19,0,0,1,2.69,3,11.61,11.61,0,0,1,0,9.2,7.16,7.16,0,0,1-2.69,3A7.6,7.6,0,0,1,41.64,80.68Zm0-2.9a3.78,3.78,0,0,0,3.24-1.54A6.94,6.94,0,0,0,46,72a7,7,0,0,0-1.14-4.25,4.19,4.19,0,0,0-6.47,0A7,7,0,0,0,37.27,72a6.94,6.94,0,0,0,1.14,4.24A3.78,3.78,0,0,0,41.64,77.78Z"/><path class="cls-1" d="M51.08,80.31V77.65H66.32v2.66Zm6.5,0V62.84a1.9,1.9,0,0,0-2.07-2.06H51.7V58.13h4.16A4.33,4.33,0,0,1,60.73,63V80.31Z"/><path class="cls-1" d="M73.51,80.68a6.84,6.84,0,0,1-2.81-.56,4.86,4.86,0,0,1-2-1.59A4,4,0,0,1,68,76.12a4.26,4.26,0,0,1,1.29-3.31,8,8,0,0,1,3.93-1.69L78.57,70a4.36,4.36,0,0,0-.84-2.91,3.21,3.21,0,0,0-2.53-1,3.72,3.72,0,0,0-2.44.72,3.59,3.59,0,0,0-1.19,2l-3.31-.22a6.36,6.36,0,0,1,2.28-3.84,7.16,7.16,0,0,1,4.66-1.47,6.29,6.29,0,0,1,4.85,1.81,7.08,7.08,0,0,1,1.67,5v6.56a1.09,1.09,0,0,0,.25.8,1,1,0,0,0,.72.23h.94v2.6l-.61.06-.83,0a4.35,4.35,0,0,1-1.9-.38,2.46,2.46,0,0,1-1.17-1.17,5,5,0,0,1-.46-2h.5a3.9,3.9,0,0,1-1,2,5.28,5.28,0,0,1-2,1.37A7,7,0,0,1,73.51,80.68ZM74,78.09a5.54,5.54,0,0,0,2.53-.53,3.6,3.6,0,0,0,1.54-1.5,4.74,4.74,0,0,0,.52-2.28V72.5L74,73.43a4,4,0,0,0-2.1.88,2.13,2.13,0,0,0-.59,1.56A2,2,0,0,0,72,77.49,3,3,0,0,0,74,78.09Z"/><path class="cls-1" d="M94.13,80.68a5.74,5.74,0,0,1-3.07-.8,5.5,5.5,0,0,1-2-2.14l-.09,2.57H86V58.13h3.16V66a5.67,5.67,0,0,1,5-2.72,6.44,6.44,0,0,1,3.68,1,6.72,6.72,0,0,1,2.41,3,13.24,13.24,0,0,1,0,9.28,6.63,6.63,0,0,1-2.41,3A6.44,6.44,0,0,1,94.13,80.68Zm-.53-2.9a3.54,3.54,0,0,0,3.06-1.55A7.2,7.2,0,0,0,97.75,72a7.18,7.18,0,0,0-1.09-4.25,3.49,3.49,0,0,0-3-1.53,4.22,4.22,0,0,0-2.41.68,4.46,4.46,0,0,0-1.54,2A7.9,7.9,0,0,0,89.16,72a7.76,7.76,0,0,0,.55,3.07,4.47,4.47,0,0,0,1.53,2A3.93,3.93,0,0,0,93.6,77.78Z"/><path class="cls-1" d="M109.87,80.68a7.54,7.54,0,0,1-4-1.06,7,7,0,0,1-2.69-3,11.61,11.61,0,0,1,0-9.2,7.06,7.06,0,0,1,2.69-3,8.25,8.25,0,0,1,8.09,0,7.11,7.11,0,0,1,2.68,3,11.5,11.5,0,0,1,0,9.2,7.08,7.08,0,0,1-2.68,3A7.6,7.6,0,0,1,109.87,80.68Zm0-2.9a3.77,3.77,0,0,0,3.23-1.54A6.87,6.87,0,0,0,114.25,72a6.9,6.9,0,0,0-1.15-4.25,4.17,4.17,0,0,0-6.46,0A7,7,0,0,0,105.5,72a6.94,6.94,0,0,0,1.14,4.24A3.78,3.78,0,0,0,109.87,77.78Z"/><path class="cls-1" d="M120.18,66.34V63.69h6v2.65Zm0,14V77.65h12.56v2.66Zm4.22,0V63.69h2.5l.28,4.25-.28,0a5.49,5.49,0,0,1,1.34-3.18,3.84,3.84,0,0,1,2.84-1h3.53v2.75h-3.4a4.08,4.08,0,0,0-2,.45A2.92,2.92,0,0,0,128,68.23a5,5,0,0,0-.43,2.2v9.88Z"/><path class="cls-1" d="M141.74,80.68a6.89,6.89,0,0,1-2.82-.56,4.89,4.89,0,0,1-2-1.59,4,4,0,0,1-.73-2.41,4.26,4.26,0,0,1,1.29-3.31,7.93,7.93,0,0,1,3.92-1.69L146.8,70a4.3,4.3,0,0,0-.85-2.91,3.18,3.18,0,0,0-2.53-1,3.71,3.71,0,0,0-2.43.72,3.59,3.59,0,0,0-1.19,2l-3.31-.22a6.36,6.36,0,0,1,2.28-3.84,7.15,7.15,0,0,1,4.65-1.47,6.3,6.3,0,0,1,4.86,1.81,7.08,7.08,0,0,1,1.67,5v6.56a1.09,1.09,0,0,0,.25.8,1,1,0,0,0,.72.23h.94v2.6l-.61.06-.83,0a4.35,4.35,0,0,1-1.9-.38,2.48,2.48,0,0,1-1.18-1.17,5.14,5.14,0,0,1-.45-2h.5a3.9,3.9,0,0,1-1,2,5.28,5.28,0,0,1-2,1.37A7,7,0,0,1,141.74,80.68Zm.47-2.59a5.54,5.54,0,0,0,2.53-.53,3.6,3.6,0,0,0,1.54-1.5,4.74,4.74,0,0,0,.52-2.28V72.5l-4.63.93a4,4,0,0,0-2.09.88,2.13,2.13,0,0,0-.59,1.56,2,2,0,0,0,.72,1.62A3,3,0,0,0,142.21,78.09Z"/><path class="cls-1" d="M153.17,66.34V63.69H168v2.65Zm10.25,14a5.28,5.28,0,0,1-3.77-1.18,4.76,4.76,0,0,1-1.23-3.6V59.78h3.15V75.37a2.42,2.42,0,0,0,.55,1.72,2.2,2.2,0,0,0,1.64.56H168v2.66Z"/><path class="cls-1" d="M171.1,80.31V77.65h15.25v2.66Zm.31-14V63.69h9.1v2.65Zm6-5.06V58h3.25v3.28Zm.19,19V63.69h3.19V80.31Z"/><path class="cls-1" d="M187.91,66.34V63.69h14.25v2.65Zm4.37,14V62.81A4.15,4.15,0,0,1,197,58.13h5.38v2.65h-5.07a1.8,1.8,0,0,0-1.42.55,2.21,2.21,0,0,0-.48,1.51V80.31Z"/><path class="cls-2" d="M.62,98V95.25H14.43V98Zm0,6.75V102H14.43v2.78Z"/><path class="cls-1" d="M17.9,109.31V87.13h6.87a9.21,9.21,0,0,1,4.05.84,6.32,6.32,0,0,1,2.69,2.39,7.56,7.56,0,0,1,0,7.34,6.22,6.22,0,0,1-2.69,2.37,9.21,9.21,0,0,1-4.05.83H21.18v8.41Zm3.28-11.5h3.25a5.26,5.26,0,0,0,3.5-1A3.49,3.49,0,0,0,29.05,94a3.53,3.53,0,0,0-1.12-2.84,5.26,5.26,0,0,0-3.5-1H21.18Z"/><path class="cls-1" d="M39.39,109.68a6.88,6.88,0,0,1-2.81-.56,4.89,4.89,0,0,1-2-1.59,4.05,4.05,0,0,1-.74-2.41,4.27,4.27,0,0,1,1.3-3.31,7.89,7.89,0,0,1,3.92-1.69L44.46,99a4.36,4.36,0,0,0-.85-2.91,3.18,3.18,0,0,0-2.53-1,3.75,3.75,0,0,0-2.44.72,3.64,3.64,0,0,0-1.18,2l-3.31-.22a6.36,6.36,0,0,1,2.28-3.84,7.13,7.13,0,0,1,4.65-1.47,6.31,6.31,0,0,1,4.86,1.81,7.12,7.12,0,0,1,1.67,5v6.56a1.05,1.05,0,0,0,.25.8,1,1,0,0,0,.72.23h.94v2.6l-.61.06-.83,0a4.39,4.39,0,0,1-1.91-.38A2.46,2.46,0,0,1,45,107.85a5.14,5.14,0,0,1-.45-2h.5a4,4,0,0,1-1,2,5.36,5.36,0,0,1-2,1.37A7.08,7.08,0,0,1,39.39,109.68Zm.47-2.59a5.51,5.51,0,0,0,2.53-.53,3.57,3.57,0,0,0,1.55-1.5,4.85,4.85,0,0,0,.52-2.28V101.5l-4.63.93a4,4,0,0,0-2.09.88,2.09,2.09,0,0,0-.6,1.56,2,2,0,0,0,.72,1.62A3,3,0,0,0,39.86,107.09Z"/><path class="cls-1" d="M51.58,114V92.69h3l.06,3.78-.38-.19a5.41,5.41,0,0,1,5.41-4,6.18,6.18,0,0,1,3.93,1.2,7.16,7.16,0,0,1,2.29,3.18,12.76,12.76,0,0,1,0,8.62,7.13,7.13,0,0,1-2.29,3.17,6.18,6.18,0,0,1-3.93,1.2,6.58,6.58,0,0,1-2.38-.42A5.11,5.11,0,0,1,55.44,108a4.72,4.72,0,0,1-1.11-1.92l.4-.44V114Zm7.5-7.21a3.68,3.68,0,0,0,3.12-1.5,8.74,8.74,0,0,0,0-8.56,3.68,3.68,0,0,0-3.12-1.5,4,4,0,0,0-2.29.64,4.12,4.12,0,0,0-1.51,1.92,8.28,8.28,0,0,0-.55,3.22,8.48,8.48,0,0,0,.53,3.21,4.1,4.1,0,0,0,1.52,1.93A4.18,4.18,0,0,0,59.08,106.78Z"/><path class="cls-1" d="M76,109.68a7.63,7.63,0,0,1-4.08-1.06,7.1,7.1,0,0,1-2.69-3,10.48,10.48,0,0,1-.95-4.59,10.28,10.28,0,0,1,.95-4.56,7.09,7.09,0,0,1,6.67-4.13,7.26,7.26,0,0,1,3.91,1,7.17,7.17,0,0,1,2.64,3,10.7,10.7,0,0,1,.95,4.7v.87H71.57a5.63,5.63,0,0,0,1.33,3.61A4.1,4.1,0,0,0,76,106.78a4,4,0,0,0,2.43-.71,3.64,3.64,0,0,0,1.35-1.82l3.31.21A7.1,7.1,0,0,1,76,109.68ZM71.57,99.4H80a4.73,4.73,0,0,0-1.3-3.15,3.94,3.94,0,0,0-2.8-1A4,4,0,0,0,73,96.28,5.24,5.24,0,0,0,71.57,99.4Z"/><path class="cls-1" d="M86.07,95.34V92.69h6v2.65Zm0,14v-2.66H98.63v2.66Zm4.21,0V92.69h2.5l.28,4.25-.28,0a5.49,5.49,0,0,1,1.35-3.18,3.81,3.81,0,0,1,2.84-1h3.53v2.75H97.09a4,4,0,0,0-2,.45,2.89,2.89,0,0,0-1.24,1.34,5.17,5.17,0,0,0-.42,2.2v9.88Z"/><path class="cls-2" d="M102.87,112.18v-2.87h14v2.87Z"/><path class="cls-1" d="M118.31,109.31l6.49-22.18h4.25l6.5,22.18h-3.4l-5.22-18.78-5.22,18.78Zm3.62-5.78,1-3h8l1,3Z"/><path class="cls-1" d="M137.11,109.31V87.13h3.16v13.93l7.5-8.37h4l-6.5,7.06,6.78,9.56h-3.72l-5.15-7.44L140.27,105v4.35Z"/><path class="cls-1" d="M158.79,109.68a6.84,6.84,0,0,1-2.81-.56,4.89,4.89,0,0,1-2-1.59,4.05,4.05,0,0,1-.74-2.41,4.27,4.27,0,0,1,1.3-3.31,7.89,7.89,0,0,1,3.92-1.69L163.85,99a4.36,4.36,0,0,0-.84-2.91,3.18,3.18,0,0,0-2.53-1,3.75,3.75,0,0,0-2.44.72,3.58,3.58,0,0,0-1.18,2l-3.31-.22a6.36,6.36,0,0,1,2.28-3.84,7.13,7.13,0,0,1,4.65-1.47,6.33,6.33,0,0,1,4.86,1.81,7.12,7.12,0,0,1,1.67,5v6.56a1.05,1.05,0,0,0,.25.8,1,1,0,0,0,.72.23h.94v2.6l-.61.06-.83,0a4.39,4.39,0,0,1-1.91-.38,2.46,2.46,0,0,1-1.17-1.17,5.14,5.14,0,0,1-.45-2h.5a4,4,0,0,1-1,2,5.36,5.36,0,0,1-2,1.37A7.08,7.08,0,0,1,158.79,109.68Zm.47-2.59a5.51,5.51,0,0,0,2.53-.53,3.57,3.57,0,0,0,1.55-1.5,4.85,4.85,0,0,0,.51-2.28V101.5l-4.62.93a4,4,0,0,0-2.09.88,2.09,2.09,0,0,0-.6,1.56,2,2,0,0,0,.72,1.62A3,3,0,0,0,159.26,107.09Z"/><path class="cls-1" d="M176.79,109.68a6.45,6.45,0,0,1-3.69-1.05,6.61,6.61,0,0,1-2.4-3,13.09,13.09,0,0,1,0-9.28,6.7,6.7,0,0,1,2.4-3,6.45,6.45,0,0,1,3.69-1,5.71,5.71,0,0,1,3.06.81A5.36,5.36,0,0,1,181.76,95v-7.9h3.15v22.18H182l-.09-2.57a5.22,5.22,0,0,1-2,2.14A5.74,5.74,0,0,1,176.79,109.68Zm.53-2.9a4,4,0,0,0,2.36-.71,4.62,4.62,0,0,0,1.53-2,7.94,7.94,0,0,0,.55-3.07,8.08,8.08,0,0,0-.55-3.13,4.48,4.48,0,0,0-1.55-2,4.18,4.18,0,0,0-2.4-.68,3.49,3.49,0,0,0-3,1.53,8.72,8.72,0,0,0,0,8.48A3.54,3.54,0,0,0,177.32,106.78Z"/><path class="cls-1" d="M195.38,109.68a7.63,7.63,0,0,1-4.08-1.06,7.1,7.1,0,0,1-2.69-3,10.48,10.48,0,0,1-1-4.59,10.28,10.28,0,0,1,1-4.56,7.09,7.09,0,0,1,6.67-4.13,7.26,7.26,0,0,1,3.91,1,7.17,7.17,0,0,1,2.64,3,10.7,10.7,0,0,1,.95,4.7v.87H191a5.63,5.63,0,0,0,1.33,3.61,4.1,4.1,0,0,0,3.11,1.24,4,4,0,0,0,2.43-.71,3.64,3.64,0,0,0,1.35-1.82l3.31.21a7.1,7.1,0,0,1-7.12,5.22ZM191,99.4h8.41a4.73,4.73,0,0,0-1.3-3.15,3.94,3.94,0,0,0-2.8-1,4,4,0,0,0-2.87,1.06A5.24,5.24,0,0,0,191,99.4Z"/><path class="cls-1" d="M204,109.31V92.69h2.75l.12,3.75-.34-.1a6,6,0,0,1,1.23-3,3,3,0,0,1,2.33-1.06,2.62,2.62,0,0,1,2.26,1.06,6.45,6.45,0,0,1,1,3.16h-.35a5.81,5.81,0,0,1,1.28-3.11,3.23,3.23,0,0,1,2.5-1.11,3.15,3.15,0,0,1,2.86,1.36,8.29,8.29,0,0,1,.89,4.42v11.22H217.4V98.62a6.43,6.43,0,0,0-.42-2.78,1.38,1.38,0,0,0-1.3-.78,1.55,1.55,0,0,0-1,.38,2.39,2.39,0,0,0-.71,1.17,7.3,7.3,0,0,0-.25,2.07v10.63h-3V98.62a6.9,6.9,0,0,0-.39-2.75,1.33,1.33,0,0,0-1.29-.81,1.52,1.52,0,0,0-1,.38,2.63,2.63,0,0,0-.71,1.17,6.92,6.92,0,0,0-.26,2.07v10.63Z"/><path class="cls-1" d="M222.27,109.31v-2.66h15.25v2.66Zm.32-14V92.69h9.09v2.65Zm6-5.06V87h3.25v3.28Zm.19,19V92.69H232v16.62Z"/><path class="cls-1" d="M239.46,109.31V87.13h3.15v13.93l7.5-8.37h4l-6.5,7.06,6.78,9.56H250.7l-5.15-7.44L242.61,105v4.35Z"/></g></g></svg>