<svg xmlns="http://www.w3.org/2000/svg" viewBox="0 0 101.75 20.09"><defs><style>.cls-1{fill:none;}.cls-2{fill:#231f20;}</style></defs><g id="Layer_2" data-name="Layer 2"><g id="Layer_1-2" data-name="Layer 1"><rect class="cls-1" width="101.75" height="20.09"/><path class="cls-2" d="M66.54,17.2v2.59H78.27l-2.71-2.54H70.67V4.33a4.4,4.4,0,0,0-1.11-3.22A4.38,4.38,0,0,0,66.33,0H62.52V2.54h3.7a1.57,1.57,0,0,1,1.2.43,1.57,1.57,0,0,1,.43,1.2v13Z"/><path class="cls-2" d="M87,17.22a.79.79,0,0,1-.5-.13.71.71,0,0,1-.14-.51V10.51A6.45,6.45,0,0,0,84.8,6,5.59,5.59,0,0,0,80.51,4.3a6.41,6.41,0,0,0-4.2,1.34,5.94,5.94,0,0,0-2.06,3.5l-.06.28,3,.23,0-.2a3.38,3.38,0,0,1,1.1-1.82A3.53,3.53,0,0,1,80.51,7a2.87,2.87,0,0,1,2.23.83,3.67,3.67,0,0,1,.77,2.41l-4.7,1a7.39,7.39,0,0,0-3.64,1.56,4,4,0,0,0-1.2,3.1,3.74,3.74,0,0,0,.68,2.22,4.44,4.44,0,0,0,1.84,1.48,6.13,6.13,0,0,0,2.58.52,6.9,6.9,0,0,0,2.47-.44,5.37,5.37,0,0,0,1.92-1.25c.11-.11.21-.23.3-.34a3.27,3.27,0,0,0,.14.33,2.26,2.26,0,0,0,1.1,1.1,5.39,5.39,0,0,0,2.39.31h1.3l2.19,0,.21,0v-2.5Zm-3.46-4.47v1a4.25,4.25,0,0,1-.46,2,3.25,3.25,0,0,1-1.39,1.33,5.16,5.16,0,0,1-2.36.48A2.79,2.79,0,0,1,77.51,17a1.68,1.68,0,0,1-.61-1.39,1.7,1.7,0,0,1,.5-1.3,3.91,3.91,0,0,1,1.94-.78Z"/><path class="cls-2" d="M21.23,17.55a1.59,1.59,0,0,1-1.2-.43,1.52,1.52,0,0,1-.41-1V0H15.89L9.82,16.52,3.74,0H0V20.09H2.87v-14l5.18,14h3.52l5.18-14v9.69l0,.25h0a4.2,4.2,0,0,0,1.11,3,4.34,4.34,0,0,0,3.22,1.11h7.43l-2.12-2.54Z"/><path class="cls-2" d="M37.86,19.81V17.2h-2a.62.62,0,0,1-.37-.12.66.66,0,0,1-.14-.5V10.51A6.49,6.49,0,0,0,33.78,6a5.61,5.61,0,0,0-4.3-1.67,6.41,6.41,0,0,0-4.2,1.34,5.94,5.94,0,0,0-2.06,3.5l-.06.28,2.95.23.05-.2a3.38,3.38,0,0,1,1.1-1.82A3.55,3.55,0,0,1,29.48,7a2.85,2.85,0,0,1,2.23.83,3.57,3.57,0,0,1,.77,2.42l-4.7,1a7.39,7.39,0,0,0-3.64,1.56,4,4,0,0,0-1.2,3.1,3.8,3.8,0,0,0,.68,2.23,4.49,4.49,0,0,0,1.84,1.47,6.15,6.15,0,0,0,2.59.52,6.88,6.88,0,0,0,2.46-.44,5.37,5.37,0,0,0,1.92-1.25c.11-.11.21-.23.3-.34a3.27,3.27,0,0,0,.14.33,2.35,2.35,0,0,0,1.1,1.1,3.44,3.44,0,0,0,1,.26h0a7.86,7.86,0,0,0,1.4.05m-3.87-6.08a4.17,4.17,0,0,1-.47,2,3.14,3.14,0,0,1-1.38,1.34,5.21,5.21,0,0,1-2.37.48A2.79,2.79,0,0,1,26.48,17a1.68,1.68,0,0,1-.61-1.39,1.7,1.7,0,0,1,.5-1.3,3.91,3.91,0,0,1,1.95-.78l4.17-.82Z"/><path class="cls-2" d="M67.12,19.81V17.2H65.07a.63.63,0,0,1-.38-.12.71.71,0,0,1-.13-.5V10.51A6.49,6.49,0,0,0,63,6,5.6,5.6,0,0,0,58.74,4.3a6.44,6.44,0,0,0-4.21,1.34,5.94,5.94,0,0,0-2.06,3.5l0,.28,2.94.23.06-.2a3.26,3.26,0,0,1,1.1-1.82A3.53,3.53,0,0,1,58.74,7,2.87,2.87,0,0,1,61,7.84a3.68,3.68,0,0,1,.77,2.42l-4.71,1a7.43,7.43,0,0,0-3.64,1.56,4.06,4.06,0,0,0-1.2,3.1,3.8,3.8,0,0,0,.68,2.23,4.49,4.49,0,0,0,1.84,1.47,6.21,6.21,0,0,0,2.59.52,6.88,6.88,0,0,0,2.46-.44,5.33,5.33,0,0,0,1.93-1.25l.3-.34a3.24,3.24,0,0,0,.13.33,2.35,2.35,0,0,0,1.1,1.1,3.54,3.54,0,0,0,1,.26h0a7.9,7.9,0,0,0,1.4.05m-3.87-6.08a4.17,4.17,0,0,1-.47,2,3.14,3.14,0,0,1-1.38,1.34,5.18,5.18,0,0,1-2.37.48A2.8,2.8,0,0,1,55.73,17a1.68,1.68,0,0,1-.61-1.39,1.71,1.71,0,0,1,.51-1.3,3.91,3.91,0,0,1,1.94-.78l4.17-.82Z"/><path class="cls-2" d="M52.68,17.13l-.12,0a17.63,17.63,0,0,1-2.18,0c-.37-.07-.76-.63-1.08-1.09l-.55-.84-3-4.16,6-6.48H48L41.2,12.09V0H38.38V17.22l-.77,0v2.62h.75a5.09,5.09,0,0,0,.56,0H41.2v-4l2.55-2.69L47,17.68a4.85,4.85,0,0,0,3.08,2.21c.61.11,2.7.13,4.39.14l1.37,0,.78,0L52.78,17.2Z"/><path class="cls-2" d="M99.42,5.05a5,5,0,0,0-2.8-.75,6.26,6.26,0,0,0-2.19.39A4.34,4.34,0,0,0,92.7,5.91l-.22.28V0H89.66V19.77h2.82v-9a4,4,0,0,1,1-2.94,3.51,3.51,0,0,1,2.65-1,2.45,2.45,0,0,1,2.11.92,5.07,5.07,0,0,1,.7,3v9h2.82V10.1a7.09,7.09,0,0,0-.59-3A4.69,4.69,0,0,0,99.42,5.05Z"/></g></g></svg>