<svg xmlns="http://www.w3.org/2000/svg" viewBox="0 0 89.4 19.93"><defs><style>.cls-1{fill:#231f20;}.cls-2{fill:none;}</style></defs><g id="Layer_2" data-name="Layer 2"><g id="Layer_1-2" data-name="Layer 1"><path class="cls-1" d="M88.84,7.3a4.41,4.41,0,0,0-1.66-1.95,4.8,4.8,0,0,0-2.66-.71,6,6,0,0,0-2.1.37,4.18,4.18,0,0,0-1.63,1.15,4.4,4.4,0,0,0-.66,1.17V0H77.81V17.56h-1a1,1,0,0,1-.66-.2.88.88,0,0,1-.22-.69V10.6a6.22,6.22,0,0,0-1.46-4.37,5.33,5.33,0,0,0-4.12-1.59,6.14,6.14,0,0,0-4,1.29,5.57,5.57,0,0,0-2,3.35l2.45.19A3.54,3.54,0,0,1,68,7.53a3.73,3.73,0,0,1,2.37-.68,3.12,3.12,0,0,1,2.42.91,4,4,0,0,1,.84,2.79l-4.91,1A7.17,7.17,0,0,0,65.19,13,3.8,3.8,0,0,0,64.07,16a3.71,3.71,0,0,0,.35,1.6H62.28V4.09a4.14,4.14,0,0,0-1-3,4.14,4.14,0,0,0-3.05-1H54.63v2h3.45a1.83,1.83,0,0,1,1.38.5A1.86,1.86,0,0,1,60,3.92V17.56h-1.1a1,1,0,0,1-.66-.2.88.88,0,0,1-.22-.69V10.6a6.18,6.18,0,0,0-1.47-4.37A5.29,5.29,0,0,0,52.4,4.64a6.14,6.14,0,0,0-4,1.29,5.57,5.57,0,0,0-2,3.35l2.45.19A3.49,3.49,0,0,1,50,7.53a3.67,3.67,0,0,1,2.37-.68,3.12,3.12,0,0,1,2.42.91,4,4,0,0,1,.84,2.79l-4.91,1A7.13,7.13,0,0,0,47.23,13,3.75,3.75,0,0,0,46.11,16a3.57,3.57,0,0,0,.35,1.59h-.24c-.51-.09-1-.79-1.34-1.33l-.8-1.12h0l-2.85-3.91L47,5H44l-7.12,7.86V0H34.51V17.56h-.69a1,1,0,0,1-.66-.2.88.88,0,0,1-.22-.69V10.6a6.22,6.22,0,0,0-1.46-4.37,5.32,5.32,0,0,0-4.11-1.59,6.15,6.15,0,0,0-4.05,1.29,5.62,5.62,0,0,0-2,3.35l2.46.19A3.48,3.48,0,0,1,25,7.53a3.7,3.7,0,0,1,2.38-.68,3.11,3.11,0,0,1,2.41.91,4,4,0,0,1,.84,2.79l-4.91,1A7.17,7.17,0,0,0,22.19,13,3.78,3.78,0,0,0,21.08,16a3.54,3.54,0,0,0,.54,1.94H21a1.87,1.87,0,0,1-1.38-.5,1.78,1.78,0,0,1-.48-1.16V0H15.81L9.58,17.33,3.31,0H0V19.93H2.37V4.75L8,19.93h3.18l5.6-15.18V15.84h0a4.12,4.12,0,0,0,1,3.05,4.14,4.14,0,0,0,3.05,1h5.06a6.36,6.36,0,0,0,2.37-.43,4.92,4.92,0,0,0,1.84-1.19,3.46,3.46,0,0,0,.58-.77,3.23,3.23,0,0,0,.26.83,2,2,0,0,0,1,1,3.76,3.76,0,0,0,1.59.3h.69a4.39,4.39,0,0,0,.52,0h2.07V15.78l2.87-3,.06.08h-.08l3.41,4.81A4.67,4.67,0,0,0,46,19.74c.56.09,2.54.11,4.1.13a8.1,8.1,0,0,0,.87.06,4.4,4.4,0,0,0,.51-.05h.24l0,0a6.39,6.39,0,0,0,1.65-.37,4.92,4.92,0,0,0,1.84-1.19,4.2,4.2,0,0,0,.58-.77,3.23,3.23,0,0,0,.26.83,2,2,0,0,0,1,1,3.74,3.74,0,0,0,1.58.3h.69a4.61,4.61,0,0,0,.53,0h7.08a6.65,6.65,0,0,0,4.42-.1,4.92,4.92,0,0,0,1.84-1.19,4.2,4.2,0,0,0,.58-.77,3.23,3.23,0,0,0,.26.83,2,2,0,0,0,1,1,3.74,3.74,0,0,0,1.58.3h.69c.24,0,.89,0,1,0h1.9V10.88a4.3,4.3,0,0,1,1.06-3.12A3.79,3.79,0,0,1,84,6.68a2.68,2.68,0,0,1,2.31,1,5.3,5.3,0,0,1,.75,3.14V19.6H89.4V10.19A7.09,7.09,0,0,0,88.84,7.3ZM30.62,13.8a4.47,4.47,0,0,1-.49,2.14,3.46,3.46,0,0,1-1.49,1.44,5.44,5.44,0,0,1-2.49.51,3,3,0,0,1-1.94-.57,1.93,1.93,0,0,1-.71-1.59,2,2,0,0,1,.58-1.47,4,4,0,0,1,2.07-.84l4.47-.89Zm24.54,2.14a3.4,3.4,0,0,1-1.49,1.44,5.39,5.39,0,0,1-2.48.51,3,3,0,0,1-1.95-.57,1.93,1.93,0,0,1-.7-1.59,2,2,0,0,1,.58-1.47,4,4,0,0,1,2.07-.84l4.47-.89V13.8A4.48,4.48,0,0,1,55.16,15.94Zm18,0a3.35,3.35,0,0,1-1.49,1.44,5.39,5.39,0,0,1-2.48.51,3,3,0,0,1-2-.57,1.94,1.94,0,0,1-.7-1.59,2,2,0,0,1,.58-1.47,4,4,0,0,1,2.07-.84l4.47-.89V13.8A4.45,4.45,0,0,1,73.12,15.94Z"/><rect class="cls-2" width="89.4" height="19.93"/></g></g></svg>