<?xml version="1.0" encoding="utf-8"?>
<!-- Generator: Adobe Illustrator 24.3.0, SVG Export Plug-In . SVG Version: 6.00 Build 0)  -->
<svg version="1.1" id="Layer_1" xmlns="http://www.w3.org/2000/svg" xmlns:xlink="http://www.w3.org/1999/xlink" x="0px" y="0px"
	 viewBox="0 0 1000 1000" style="enable-background:new 0 0 1000 1000;" xml:space="preserve">
<style type="text/css">
	.st0{opacity:0.993;fill-rule:evenodd;clip-rule:evenodd;fill:#2F2F33;enable-background:new    ;}
	.st1{opacity:0.255;fill-rule:evenodd;clip-rule:evenodd;fill:#BCD673;enable-background:new    ;}
	.st2{opacity:0.243;fill-rule:evenodd;clip-rule:evenodd;fill:#F99F78;enable-background:new    ;}
</style>
<g>
	<path class="st0" d="M999.5,127.5c0,173,0,346,0,519c-20.6,78.1-71.4,120.1-152.5,126c-41.1-3.4-77.6-17.9-109.5-43.5
		c-20.7-20.2-34.5-44.3-41.5-72.5c-3-14.9-5.7-29.9-8-45c-8-38.9-31.5-61.7-70.5-68.5c-41.9,2.3-66.8,24.1-74.5,65.5
		c-0.3,81-0.7,162-1,243c-5.1,24.1-19.9,35.9-44.5,35.5c-17.5-2.5-29.3-12-35.5-28.5c-0.6-20.6-6.2-39.6-17-57
		c-24.1-27.7-53.6-35.6-88.5-23.5c-6.3,3.2-12.3,6.8-18,11c-12.9,15-21.7,32.1-26.5,51.5c-6,31.4-16,61.4-30,90
		c-20.8,37-52,60-93.5,69c-20.3,0-40.7,0-61,0C52.8,981.3,10.6,934,1,857.5c-0.7-237.3-0.7-474.7,0-712C7.3,84.6,37.8,40.8,92.5,14
		c16.7-7,34-11.3,52-13c237.7-0.7,475.3-0.7,713,0C934,10.6,981.3,52.8,999.5,127.5z M146.5,82.5c111-0.2,222,0,333,0.5
		c-9.2,17.4-15.1,35.9-17.5,55.5c-1.3,37-1.9,74-2,111c-50.2-25.4-100.4-25.2-150.5,0.5c-27.2,15.8-47.3,38-60.5,66.5
		c-11.5,25.3-19.9,51.6-25,79c-4.5,19.3-13,36.4-25.5,51.5c-20.7,14.4-43,17.4-67,9c-28-10.7-44.2-30.8-48.5-60.5
		c-0.7-82.7-0.7-165.3,0-248C89.4,111.2,110.6,89.5,146.5,82.5z M82.5,850.5c-0.3-109.2,0-218.2,1-327c44.6,22.4,89.9,24.2,136,5.5
		c26.9-12.3,47.4-31.4,61.5-57.5c8.4-15.6,15.1-31.9,20-49c4.3-17.8,9-35.4,14-53c16.7-49.6,50.2-66.8,100.5-51.5
		c24,11.1,38.5,29.6,43.5,55.5c-0.4,13.7,2.9,26.4,10,38c18.3,18.7,38.2,20.5,59.5,5.5c8.2-8.1,12.7-18,13.5-29.5
		c0.3-80.3,0.7-160.7,1-241c6.9-37.2,29-58.4,66.5-63.5c39.2,1.5,64.7,21,76.5,58.5c3.4,17.6,6.8,35.3,10,53
		c12.2,50.2,42.3,84.7,90.5,103.5c19.4,7.3,39.4,12.1,60,14.5c26.1-1,50.6-7.6,73.5-20c0.7,110,0.7,220,0,330
		c-6.2,40.4-29.7,63.1-70.5,68c-20.5-2.6-39.2-9.7-56-21.5c-9.4-9.7-15.6-21.2-18.5-34.5c-3-25.3-8.7-50-17-74
		c-28-61-75.7-94.3-143-100c-64.4,3.5-111.1,33.9-140,91c-7.8,17.9-12.5,36.5-14,56c-0.3,34-0.7,68-1,102
		c-51-25.7-101.9-25.2-152.5,1.5c-27.7,16.7-47.8,39.8-60.5,69.5c-10.5,25.2-18.5,51.2-24,78c-4.2,15-10.5,29-19,42
		c-12.5,13.4-28,20-46.5,20C113.8,917.1,88.8,893.8,82.5,850.5z M850.5,82.5c42.8,6.2,66.2,30.8,70,74c-3.9,43.6-27.6,68.3-71,74
		c-19.6-2.3-37.6-8.8-54-19.5c-9-9-15.5-19.5-19.5-31.5c-3.2-19.4-6.9-38.8-11-58c-3.8-13.3-9-25.9-15.5-38
		C783,82.5,816.7,82.2,850.5,82.5z"/>
</g>
<g>
	<path class="st1" d="M850.5,82.5c-33.8-0.3-67.5,0-101,1c-0.5-0.1-0.9-0.4-1-1C782.7,81.2,816.7,81.2,850.5,82.5z"/>
</g>
<g>
	<path class="st2" d="M83.5,523.5c-1,108.8-1.3,217.8-1,327c-1.3-109.2-1.3-218.5,0-328C83.1,522.6,83.4,523,83.5,523.5z"/>
</g>
</svg>
